<mxfile host="app.diagrams.net" modified="2023-05-03T12:53:56.497Z" agent="5.0 (Macintosh; Intel Mac OS X 10_15_7) AppleWebKit/537.36 (KHTML, like Gecko) Chrome/112.0.0.0 Safari/537.36" etag="qWghUFKyDYDv0g4xRwlX" version="20.8.11" type="github">
  <diagram name="Page-1" id="x6a1R5R4ytEmfVrX3U43">
    <mxGraphModel dx="3146" dy="2237" grid="1" gridSize="10" guides="1" tooltips="1" connect="1" arrows="1" fold="1" page="1" pageScale="1" pageWidth="827" pageHeight="1169" math="0" shadow="0">
      <root>
        <mxCell id="0" />
        <mxCell id="1" parent="0" />
        <mxCell id="R0zmebqpnlVrIiYbYnW8-24" value="" style="whiteSpace=wrap;html=1;aspect=fixed;" vertex="1" parent="1">
          <mxGeometry x="319" y="445" width="190" height="190" as="geometry" />
        </mxCell>
        <mxCell id="R0zmebqpnlVrIiYbYnW8-7" value="" style="edgeStyle=orthogonalEdgeStyle;rounded=0;orthogonalLoop=1;jettySize=auto;html=1;entryX=0;entryY=0.5;entryDx=0;entryDy=0;strokeColor=#FF3399;strokeWidth=4;" edge="1" parent="1" source="R0zmebqpnlVrIiYbYnW8-53" target="R0zmebqpnlVrIiYbYnW8-140">
          <mxGeometry relative="1" as="geometry">
            <mxPoint x="414" y="610" as="sourcePoint" />
            <Array as="points">
              <mxPoint x="330" y="466" />
              <mxPoint x="330" y="620" />
              <mxPoint x="410" y="620" />
              <mxPoint x="410" y="660" />
              <mxPoint x="170" y="660" />
              <mxPoint x="170" y="-270" />
              <mxPoint x="306" y="-270" />
            </Array>
          </mxGeometry>
        </mxCell>
        <mxCell id="R0zmebqpnlVrIiYbYnW8-8" value="15m / 30 mm" style="edgeLabel;html=1;align=center;verticalAlign=middle;resizable=0;points=[];" vertex="1" connectable="0" parent="R0zmebqpnlVrIiYbYnW8-7">
          <mxGeometry x="0.125" relative="1" as="geometry">
            <mxPoint as="offset" />
          </mxGeometry>
        </mxCell>
        <mxCell id="R0zmebqpnlVrIiYbYnW8-1" value="CUVE" style="ellipse;whiteSpace=wrap;html=1;aspect=fixed;" vertex="1" parent="1">
          <mxGeometry x="360" y="500" width="80" height="80" as="geometry" />
        </mxCell>
        <mxCell id="R0zmebqpnlVrIiYbYnW8-2" value="" style="endArrow=none;html=1;rounded=0;exitX=1;exitY=0;exitDx=0;exitDy=0;entryX=0;entryY=0.5;entryDx=0;entryDy=0;" edge="1" parent="1" source="R0zmebqpnlVrIiYbYnW8-1" target="R0zmebqpnlVrIiYbYnW8-26">
          <mxGeometry width="50" height="50" relative="1" as="geometry">
            <mxPoint x="440" y="530" as="sourcePoint" />
            <mxPoint x="460" y="530" as="targetPoint" />
          </mxGeometry>
        </mxCell>
        <mxCell id="R0zmebqpnlVrIiYbYnW8-3" value="2 m / 25mm" style="edgeLabel;html=1;align=center;verticalAlign=middle;resizable=0;points=[];" vertex="1" connectable="0" parent="R0zmebqpnlVrIiYbYnW8-2">
          <mxGeometry x="0.2" y="1" relative="1" as="geometry">
            <mxPoint x="-14" y="-27" as="offset" />
          </mxGeometry>
        </mxCell>
        <mxCell id="R0zmebqpnlVrIiYbYnW8-4" value="" style="endArrow=none;html=1;rounded=0;exitX=0;exitY=0.5;exitDx=0;exitDy=0;strokeColor=#0000FF;" edge="1" parent="1" source="R0zmebqpnlVrIiYbYnW8-65">
          <mxGeometry width="50" height="50" relative="1" as="geometry">
            <mxPoint x="693" y="535" as="sourcePoint" />
            <mxPoint x="700" y="300" as="targetPoint" />
            <Array as="points">
              <mxPoint x="650" y="420" />
            </Array>
          </mxGeometry>
        </mxCell>
        <mxCell id="R0zmebqpnlVrIiYbYnW8-5" value="5m / 25mm" style="edgeLabel;html=1;align=center;verticalAlign=middle;resizable=0;points=[];" vertex="1" connectable="0" parent="R0zmebqpnlVrIiYbYnW8-4">
          <mxGeometry x="0.1385" relative="1" as="geometry">
            <mxPoint as="offset" />
          </mxGeometry>
        </mxCell>
        <mxCell id="R0zmebqpnlVrIiYbYnW8-10" value="" style="edgeStyle=orthogonalEdgeStyle;rounded=0;orthogonalLoop=1;jettySize=auto;html=1;exitX=0.5;exitY=0;exitDx=0;exitDy=0;strokeColor=#0000FF;" edge="1" parent="1" source="R0zmebqpnlVrIiYbYnW8-136" target="R0zmebqpnlVrIiYbYnW8-9">
          <mxGeometry relative="1" as="geometry">
            <mxPoint x="130" y="-10" as="sourcePoint" />
          </mxGeometry>
        </mxCell>
        <mxCell id="R0zmebqpnlVrIiYbYnW8-11" value="6 m / 25mm" style="edgeLabel;html=1;align=center;verticalAlign=middle;resizable=0;points=[];" vertex="1" connectable="0" parent="R0zmebqpnlVrIiYbYnW8-10">
          <mxGeometry x="0.2464" y="-1" relative="1" as="geometry">
            <mxPoint as="offset" />
          </mxGeometry>
        </mxCell>
        <mxCell id="R0zmebqpnlVrIiYbYnW8-13" value="" style="edgeStyle=orthogonalEdgeStyle;rounded=0;orthogonalLoop=1;jettySize=auto;html=1;strokeColor=#0000FF;exitX=1;exitY=0.5;exitDx=0;exitDy=0;entryX=0;entryY=0.5;entryDx=0;entryDy=0;" edge="1" parent="1" source="R0zmebqpnlVrIiYbYnW8-131" target="R0zmebqpnlVrIiYbYnW8-250">
          <mxGeometry relative="1" as="geometry">
            <mxPoint x="140" y="50" as="sourcePoint" />
            <Array as="points">
              <mxPoint x="512" y="190" />
              <mxPoint x="272" y="190" />
            </Array>
          </mxGeometry>
        </mxCell>
        <mxCell id="R0zmebqpnlVrIiYbYnW8-21" value="8m / 25 mm" style="edgeLabel;html=1;align=center;verticalAlign=middle;resizable=0;points=[];" vertex="1" connectable="0" parent="R0zmebqpnlVrIiYbYnW8-13">
          <mxGeometry x="0.1649" y="2" relative="1" as="geometry">
            <mxPoint as="offset" />
          </mxGeometry>
        </mxCell>
        <mxCell id="R0zmebqpnlVrIiYbYnW8-15" value="" style="edgeStyle=orthogonalEdgeStyle;rounded=0;orthogonalLoop=1;jettySize=auto;html=1;exitX=0;exitY=0.5;exitDx=0;exitDy=0;entryX=0;entryY=1;entryDx=0;entryDy=0;strokeColor=#0000FF;" edge="1" parent="1" source="R0zmebqpnlVrIiYbYnW8-188" target="R0zmebqpnlVrIiYbYnW8-118">
          <mxGeometry relative="1" as="geometry">
            <Array as="points">
              <mxPoint x="-20" y="-204" />
              <mxPoint x="-20" y="-39" />
              <mxPoint x="279" y="-39" />
            </Array>
          </mxGeometry>
        </mxCell>
        <mxCell id="R0zmebqpnlVrIiYbYnW8-22" value="6m / 25 mm" style="edgeLabel;html=1;align=center;verticalAlign=middle;resizable=0;points=[];" vertex="1" connectable="0" parent="R0zmebqpnlVrIiYbYnW8-15">
          <mxGeometry x="0.173" y="-1" relative="1" as="geometry">
            <mxPoint as="offset" />
          </mxGeometry>
        </mxCell>
        <mxCell id="R0zmebqpnlVrIiYbYnW8-150" style="edgeStyle=orthogonalEdgeStyle;rounded=0;orthogonalLoop=1;jettySize=auto;html=1;exitX=1;exitY=0;exitDx=0;exitDy=0;fontSize=12;strokeColor=#0000FF;" edge="1" parent="1" source="R0zmebqpnlVrIiYbYnW8-6" target="R0zmebqpnlVrIiYbYnW8-147">
          <mxGeometry relative="1" as="geometry">
            <Array as="points">
              <mxPoint x="334" y="-199" />
              <mxPoint x="334" y="-204" />
            </Array>
          </mxGeometry>
        </mxCell>
        <mxCell id="R0zmebqpnlVrIiYbYnW8-6" value="Servo &lt;br&gt;Abri-jardin" style="whiteSpace=wrap;html=1;rotation=90;" vertex="1" parent="1">
          <mxGeometry x="220" y="-289" width="120" height="60" as="geometry" />
        </mxCell>
        <mxCell id="R0zmebqpnlVrIiYbYnW8-9" value="Evier&amp;nbsp;&lt;br&gt;Abri Jardin" style="whiteSpace=wrap;html=1;rotation=90;" vertex="1" parent="1">
          <mxGeometry x="-270" y="-129" width="120" height="60" as="geometry" />
        </mxCell>
        <mxCell id="R0zmebqpnlVrIiYbYnW8-256" style="edgeStyle=orthogonalEdgeStyle;rounded=0;orthogonalLoop=1;jettySize=auto;html=1;strokeColor=default;strokeWidth=1;fontSize=12;" edge="1" parent="1" source="R0zmebqpnlVrIiYbYnW8-12" target="R0zmebqpnlVrIiYbYnW8-251">
          <mxGeometry relative="1" as="geometry" />
        </mxCell>
        <mxCell id="R0zmebqpnlVrIiYbYnW8-12" value="Servo Terrasse" style="whiteSpace=wrap;html=1;" vertex="1" parent="1">
          <mxGeometry x="10" y="111" width="120" height="60" as="geometry" />
        </mxCell>
        <mxCell id="R0zmebqpnlVrIiYbYnW8-14" value="Zone1" style="ellipse;whiteSpace=wrap;html=1;" vertex="1" parent="1">
          <mxGeometry x="270" y="121" width="40" height="40" as="geometry" />
        </mxCell>
        <mxCell id="R0zmebqpnlVrIiYbYnW8-16" value="" style="edgeStyle=orthogonalEdgeStyle;rounded=0;orthogonalLoop=1;jettySize=auto;html=1;exitX=0;exitY=0.5;exitDx=0;exitDy=0;entryX=0;entryY=0.5;entryDx=0;entryDy=0;strokeColor=#0000FF;" edge="1" parent="1" target="R0zmebqpnlVrIiYbYnW8-112" source="R0zmebqpnlVrIiYbYnW8-183">
          <mxGeometry relative="1" as="geometry">
            <mxPoint x="250" y="-419" as="sourcePoint" />
            <Array as="points">
              <mxPoint y="-244" />
              <mxPoint y="-159" />
              <mxPoint x="280" y="-159" />
              <mxPoint x="280" y="-171" />
            </Array>
          </mxGeometry>
        </mxCell>
        <mxCell id="R0zmebqpnlVrIiYbYnW8-23" value="2 m / 25 mm" style="edgeLabel;html=1;align=center;verticalAlign=middle;resizable=0;points=[];" vertex="1" connectable="0" parent="R0zmebqpnlVrIiYbYnW8-16">
          <mxGeometry x="0.4095" relative="1" as="geometry">
            <mxPoint as="offset" />
          </mxGeometry>
        </mxCell>
        <mxCell id="R0zmebqpnlVrIiYbYnW8-17" value="Zone2" style="ellipse;whiteSpace=wrap;html=1;" vertex="1" parent="1">
          <mxGeometry x="326.5" y="-69" width="40" height="40" as="geometry" />
        </mxCell>
        <mxCell id="R0zmebqpnlVrIiYbYnW8-18" value="" style="edgeStyle=orthogonalEdgeStyle;rounded=0;orthogonalLoop=1;jettySize=auto;html=1;entryX=0;entryY=0.5;entryDx=0;entryDy=0;exitX=0;exitY=0.5;exitDx=0;exitDy=0;strokeColor=#0000FF;" edge="1" parent="1" target="R0zmebqpnlVrIiYbYnW8-124" source="R0zmebqpnlVrIiYbYnW8-173">
          <mxGeometry relative="1" as="geometry">
            <mxPoint x="130" y="-299" as="sourcePoint" />
            <mxPoint x="-260" y="11" as="targetPoint" />
            <Array as="points">
              <mxPoint x="51" y="-289" />
              <mxPoint x="20" y="-289" />
              <mxPoint x="20" y="-391" />
              <mxPoint x="-264" y="-391" />
            </Array>
          </mxGeometry>
        </mxCell>
        <mxCell id="R0zmebqpnlVrIiYbYnW8-20" value="7 m / 25 mm" style="edgeLabel;html=1;align=center;verticalAlign=middle;resizable=0;points=[];" vertex="1" connectable="0" parent="R0zmebqpnlVrIiYbYnW8-18">
          <mxGeometry x="-0.3392" y="-1" relative="1" as="geometry">
            <mxPoint as="offset" />
          </mxGeometry>
        </mxCell>
        <mxCell id="R0zmebqpnlVrIiYbYnW8-110" style="edgeStyle=orthogonalEdgeStyle;rounded=0;orthogonalLoop=1;jettySize=auto;html=1;exitX=0.5;exitY=1;exitDx=0;exitDy=0;entryX=1;entryY=0.5;entryDx=0;entryDy=0;fontSize=12;" edge="1" parent="1" source="R0zmebqpnlVrIiYbYnW8-25" target="R0zmebqpnlVrIiYbYnW8-106">
          <mxGeometry relative="1" as="geometry" />
        </mxCell>
        <mxCell id="R0zmebqpnlVrIiYbYnW8-25" value="Zone X" style="ellipse;whiteSpace=wrap;html=1;" vertex="1" parent="1">
          <mxGeometry x="740" y="180" width="40" height="40" as="geometry" />
        </mxCell>
        <mxCell id="R0zmebqpnlVrIiYbYnW8-93" style="edgeStyle=orthogonalEdgeStyle;rounded=0;orthogonalLoop=1;jettySize=auto;html=1;exitX=1;exitY=0;exitDx=0;exitDy=0;" edge="1" parent="1" source="R0zmebqpnlVrIiYbYnW8-26" target="R0zmebqpnlVrIiYbYnW8-89">
          <mxGeometry relative="1" as="geometry" />
        </mxCell>
        <mxCell id="R0zmebqpnlVrIiYbYnW8-26" value="F" style="ellipse;whiteSpace=wrap;html=1;aspect=fixed;fillColor=#f8cecc;strokeColor=#b85450;" vertex="1" parent="1">
          <mxGeometry x="445" y="555" width="30" height="30" as="geometry" />
        </mxCell>
        <mxCell id="R0zmebqpnlVrIiYbYnW8-27" value="F" style="ellipse;whiteSpace=wrap;html=1;aspect=fixed;fillColor=#f8cecc;strokeColor=#b85450;" vertex="1" parent="1">
          <mxGeometry x="-1272" y="520" width="30" height="30" as="geometry" />
        </mxCell>
        <mxCell id="R0zmebqpnlVrIiYbYnW8-28" value="M" style="ellipse;whiteSpace=wrap;html=1;aspect=fixed;fillColor=#f8cecc;strokeColor=#b85450;" vertex="1" parent="1">
          <mxGeometry x="-1272" y="555" width="30" height="30" as="geometry" />
        </mxCell>
        <mxCell id="R0zmebqpnlVrIiYbYnW8-29" value="26/34 ou 1&#39;&#39; Femelle" style="text;strokeColor=default;align=center;fillColor=none;html=1;verticalAlign=middle;whiteSpace=wrap;rounded=0;" vertex="1" parent="1">
          <mxGeometry x="-1202" y="520" width="170" height="30" as="geometry" />
        </mxCell>
        <mxCell id="R0zmebqpnlVrIiYbYnW8-30" value="26/34&amp;nbsp;ou 1&#39;&#39; Male" style="text;strokeColor=default;align=center;fillColor=none;html=1;verticalAlign=middle;whiteSpace=wrap;rounded=0;" vertex="1" parent="1">
          <mxGeometry x="-1202" y="550" width="170" height="35" as="geometry" />
        </mxCell>
        <mxCell id="R0zmebqpnlVrIiYbYnW8-39" value="F" style="ellipse;whiteSpace=wrap;html=1;aspect=fixed;fillColor=#dae8fc;strokeColor=#6c8ebf;" vertex="1" parent="1">
          <mxGeometry x="-1315" y="610" width="30" height="30" as="geometry" />
        </mxCell>
        <mxCell id="R0zmebqpnlVrIiYbYnW8-40" value="F" style="ellipse;whiteSpace=wrap;html=1;aspect=fixed;fillColor=#f8cecc;strokeColor=#b85450;" vertex="1" parent="1">
          <mxGeometry x="-1272" y="610" width="30" height="30" as="geometry" />
        </mxCell>
        <mxCell id="R0zmebqpnlVrIiYbYnW8-41" value="&lt;p class=&quot;p1&quot;&gt;Raccord 25 mm à filetage 1&quot; femelle Gardena -&amp;nbsp;2762-20&lt;/p&gt;" style="text;whiteSpace=wrap;html=1;strokeColor=default;" vertex="1" parent="1">
          <mxGeometry x="-1202" y="600" width="320" height="50" as="geometry" />
        </mxCell>
        <mxCell id="R0zmebqpnlVrIiYbYnW8-45" value="" style="endArrow=none;html=1;rounded=0;entryX=0.5;entryY=0;entryDx=0;entryDy=0;" edge="1" parent="1" target="R0zmebqpnlVrIiYbYnW8-40">
          <mxGeometry width="50" height="50" relative="1" as="geometry">
            <mxPoint x="-1302" y="610" as="sourcePoint" />
            <mxPoint x="-1252" y="560" as="targetPoint" />
          </mxGeometry>
        </mxCell>
        <mxCell id="R0zmebqpnlVrIiYbYnW8-46" value="" style="endArrow=none;html=1;rounded=0;entryX=0.5;entryY=1;entryDx=0;entryDy=0;" edge="1" parent="1" target="R0zmebqpnlVrIiYbYnW8-40">
          <mxGeometry width="50" height="50" relative="1" as="geometry">
            <mxPoint x="-1302" y="640" as="sourcePoint" />
            <mxPoint x="-1252" y="590" as="targetPoint" />
          </mxGeometry>
        </mxCell>
        <mxCell id="R0zmebqpnlVrIiYbYnW8-52" value="" style="group;rotation=0;" vertex="1" connectable="0" parent="1">
          <mxGeometry x="360" y="450" width="73" height="30" as="geometry" />
        </mxCell>
        <mxCell id="R0zmebqpnlVrIiYbYnW8-53" value="F" style="ellipse;whiteSpace=wrap;html=1;aspect=fixed;fillColor=#dae8fc;strokeColor=#6c8ebf;rotation=0;" vertex="1" parent="R0zmebqpnlVrIiYbYnW8-52">
          <mxGeometry y="1" width="30" height="30" as="geometry" />
        </mxCell>
        <mxCell id="R0zmebqpnlVrIiYbYnW8-54" value="F" style="ellipse;whiteSpace=wrap;html=1;aspect=fixed;fillColor=#f8cecc;strokeColor=#b85450;rotation=0;" vertex="1" parent="R0zmebqpnlVrIiYbYnW8-52">
          <mxGeometry x="43" width="30" height="30" as="geometry" />
        </mxCell>
        <mxCell id="R0zmebqpnlVrIiYbYnW8-55" value="" style="endArrow=none;html=1;rounded=0;entryX=0.5;entryY=0;entryDx=0;entryDy=0;" edge="1" parent="R0zmebqpnlVrIiYbYnW8-52" target="R0zmebqpnlVrIiYbYnW8-54">
          <mxGeometry width="50" height="50" relative="1" as="geometry">
            <mxPoint x="13" y="1" as="sourcePoint" />
            <mxPoint x="63" y="-49" as="targetPoint" />
          </mxGeometry>
        </mxCell>
        <mxCell id="R0zmebqpnlVrIiYbYnW8-56" value="" style="endArrow=none;html=1;rounded=0;entryX=0.5;entryY=1;entryDx=0;entryDy=0;" edge="1" parent="R0zmebqpnlVrIiYbYnW8-52" target="R0zmebqpnlVrIiYbYnW8-54">
          <mxGeometry width="50" height="50" relative="1" as="geometry">
            <mxPoint x="13" y="31" as="sourcePoint" />
            <mxPoint x="63" y="-19" as="targetPoint" />
          </mxGeometry>
        </mxCell>
        <mxCell id="R0zmebqpnlVrIiYbYnW8-58" value="F" style="ellipse;whiteSpace=wrap;html=1;aspect=fixed;fillColor=#dae8fc;strokeColor=#6c8ebf;" vertex="1" parent="1">
          <mxGeometry x="-1330" y="780" width="30" height="30" as="geometry" />
        </mxCell>
        <mxCell id="R0zmebqpnlVrIiYbYnW8-59" value="F" style="ellipse;whiteSpace=wrap;html=1;aspect=fixed;fillColor=#dae8fc;strokeColor=#6c8ebf;" vertex="1" parent="1">
          <mxGeometry x="-1252" y="780" width="30" height="30" as="geometry" />
        </mxCell>
        <mxCell id="R0zmebqpnlVrIiYbYnW8-60" value="F" style="ellipse;whiteSpace=wrap;html=1;aspect=fixed;fillColor=#dae8fc;strokeColor=#6c8ebf;" vertex="1" parent="1">
          <mxGeometry x="-1292" y="740" width="30" height="30" as="geometry" />
        </mxCell>
        <mxCell id="R0zmebqpnlVrIiYbYnW8-61" value="" style="endArrow=none;html=1;rounded=0;entryX=0.5;entryY=0;entryDx=0;entryDy=0;" edge="1" parent="1" target="R0zmebqpnlVrIiYbYnW8-59">
          <mxGeometry width="50" height="50" relative="1" as="geometry">
            <mxPoint x="-1315" y="780" as="sourcePoint" />
            <mxPoint x="-1265" y="730" as="targetPoint" />
          </mxGeometry>
        </mxCell>
        <mxCell id="R0zmebqpnlVrIiYbYnW8-62" value="" style="endArrow=none;html=1;rounded=0;entryX=0.5;entryY=1;entryDx=0;entryDy=0;" edge="1" parent="1" target="R0zmebqpnlVrIiYbYnW8-59">
          <mxGeometry width="50" height="50" relative="1" as="geometry">
            <mxPoint x="-1312" y="810" as="sourcePoint" />
            <mxPoint x="-1262" y="760" as="targetPoint" />
          </mxGeometry>
        </mxCell>
        <mxCell id="R0zmebqpnlVrIiYbYnW8-63" value="" style="endArrow=none;html=1;rounded=0;entryX=0;entryY=0.5;entryDx=0;entryDy=0;" edge="1" parent="1" target="R0zmebqpnlVrIiYbYnW8-60">
          <mxGeometry width="50" height="50" relative="1" as="geometry">
            <mxPoint x="-1292" y="780" as="sourcePoint" />
            <mxPoint x="-1042" y="720" as="targetPoint" />
          </mxGeometry>
        </mxCell>
        <mxCell id="R0zmebqpnlVrIiYbYnW8-64" value="" style="endArrow=none;html=1;rounded=0;entryX=0;entryY=0.5;entryDx=0;entryDy=0;" edge="1" parent="1">
          <mxGeometry width="50" height="50" relative="1" as="geometry">
            <mxPoint x="-1262" y="780" as="sourcePoint" />
            <mxPoint x="-1262" y="755" as="targetPoint" />
          </mxGeometry>
        </mxCell>
        <mxCell id="R0zmebqpnlVrIiYbYnW8-72" value="" style="group;rotation=-135;" vertex="1" connectable="0" parent="1">
          <mxGeometry x="490" y="375" width="108" height="70" as="geometry" />
        </mxCell>
        <mxCell id="R0zmebqpnlVrIiYbYnW8-65" value="F" style="ellipse;whiteSpace=wrap;html=1;aspect=fixed;fillColor=#dae8fc;strokeColor=#6c8ebf;rotation=-135;" vertex="1" parent="R0zmebqpnlVrIiYbYnW8-72">
          <mxGeometry x="81" y="33" width="30" height="30" as="geometry" />
        </mxCell>
        <mxCell id="R0zmebqpnlVrIiYbYnW8-66" value="F" style="ellipse;whiteSpace=wrap;html=1;aspect=fixed;fillColor=#dae8fc;strokeColor=#6c8ebf;rotation=-135;" vertex="1" parent="R0zmebqpnlVrIiYbYnW8-72">
          <mxGeometry x="26" y="-22" width="30" height="30" as="geometry" />
        </mxCell>
        <mxCell id="R0zmebqpnlVrIiYbYnW8-67" value="F" style="ellipse;whiteSpace=wrap;html=1;aspect=fixed;fillColor=#dae8fc;strokeColor=#6c8ebf;rotation=-135;" vertex="1" parent="R0zmebqpnlVrIiYbYnW8-72">
          <mxGeometry x="25" y="35" width="30" height="30" as="geometry" />
        </mxCell>
        <mxCell id="R0zmebqpnlVrIiYbYnW8-68" value="" style="endArrow=none;html=1;rounded=0;entryX=0.5;entryY=0;entryDx=0;entryDy=0;" edge="1" parent="R0zmebqpnlVrIiYbYnW8-72" target="R0zmebqpnlVrIiYbYnW8-66">
          <mxGeometry width="50" height="50" relative="1" as="geometry">
            <mxPoint x="85" y="59" as="sourcePoint" />
            <mxPoint x="15" y="59" as="targetPoint" />
          </mxGeometry>
        </mxCell>
        <mxCell id="R0zmebqpnlVrIiYbYnW8-69" value="" style="endArrow=none;html=1;rounded=0;entryX=0.5;entryY=1;entryDx=0;entryDy=0;" edge="1" parent="R0zmebqpnlVrIiYbYnW8-72" target="R0zmebqpnlVrIiYbYnW8-66">
          <mxGeometry width="50" height="50" relative="1" as="geometry">
            <mxPoint x="104" y="36" as="sourcePoint" />
            <mxPoint x="33" y="36" as="targetPoint" />
          </mxGeometry>
        </mxCell>
        <mxCell id="R0zmebqpnlVrIiYbYnW8-70" value="" style="endArrow=none;html=1;rounded=0;entryX=0;entryY=0.5;entryDx=0;entryDy=0;" edge="1" parent="R0zmebqpnlVrIiYbYnW8-72" target="R0zmebqpnlVrIiYbYnW8-67">
          <mxGeometry width="50" height="50" relative="1" as="geometry">
            <mxPoint x="68" y="43" as="sourcePoint" />
            <mxPoint x="-151" y="-92" as="targetPoint" />
          </mxGeometry>
        </mxCell>
        <mxCell id="R0zmebqpnlVrIiYbYnW8-71" value="" style="endArrow=none;html=1;rounded=0;entryX=0;entryY=0.5;entryDx=0;entryDy=0;" edge="1" parent="R0zmebqpnlVrIiYbYnW8-72">
          <mxGeometry width="50" height="50" relative="1" as="geometry">
            <mxPoint x="48" y="21" as="sourcePoint" />
            <mxPoint x="30" y="39" as="targetPoint" />
          </mxGeometry>
        </mxCell>
        <mxCell id="R0zmebqpnlVrIiYbYnW8-74" style="edgeStyle=orthogonalEdgeStyle;rounded=0;orthogonalLoop=1;jettySize=auto;html=1;entryX=1;entryY=0.5;entryDx=0;entryDy=0;strokeColor=#0000FF;" edge="1" parent="1" source="R0zmebqpnlVrIiYbYnW8-54" target="R0zmebqpnlVrIiYbYnW8-66">
          <mxGeometry relative="1" as="geometry">
            <Array as="points">
              <mxPoint x="418" y="357" />
            </Array>
          </mxGeometry>
        </mxCell>
        <mxCell id="R0zmebqpnlVrIiYbYnW8-83" value="&lt;p class=&quot;p1&quot;&gt;Raccord 25mm mâle 26/34 Gardena -&amp;nbsp;2763-20&lt;/p&gt;" style="text;whiteSpace=wrap;html=1;strokeColor=default;" vertex="1" parent="1">
          <mxGeometry x="-1202" y="665" width="320" height="60" as="geometry" />
        </mxCell>
        <mxCell id="R0zmebqpnlVrIiYbYnW8-84" value="F" style="ellipse;whiteSpace=wrap;html=1;aspect=fixed;fillColor=#dae8fc;strokeColor=#6c8ebf;" vertex="1" parent="1">
          <mxGeometry x="-1315" y="679.5" width="30" height="30" as="geometry" />
        </mxCell>
        <mxCell id="R0zmebqpnlVrIiYbYnW8-85" value="M" style="ellipse;whiteSpace=wrap;html=1;aspect=fixed;fillColor=#f8cecc;strokeColor=#b85450;" vertex="1" parent="1">
          <mxGeometry x="-1272" y="679.5" width="30" height="30" as="geometry" />
        </mxCell>
        <mxCell id="R0zmebqpnlVrIiYbYnW8-86" value="" style="endArrow=none;html=1;rounded=0;entryX=0.5;entryY=0;entryDx=0;entryDy=0;" edge="1" parent="1" target="R0zmebqpnlVrIiYbYnW8-85">
          <mxGeometry width="50" height="50" relative="1" as="geometry">
            <mxPoint x="-1302" y="679.5" as="sourcePoint" />
            <mxPoint x="-1252" y="629.5" as="targetPoint" />
          </mxGeometry>
        </mxCell>
        <mxCell id="R0zmebqpnlVrIiYbYnW8-87" value="" style="endArrow=none;html=1;rounded=0;entryX=0.5;entryY=1;entryDx=0;entryDy=0;" edge="1" parent="1" target="R0zmebqpnlVrIiYbYnW8-85">
          <mxGeometry width="50" height="50" relative="1" as="geometry">
            <mxPoint x="-1302" y="709.5" as="sourcePoint" />
            <mxPoint x="-1252" y="659.5" as="targetPoint" />
          </mxGeometry>
        </mxCell>
        <mxCell id="R0zmebqpnlVrIiYbYnW8-92" value="" style="group;rotation=-240;" vertex="1" connectable="0" parent="1">
          <mxGeometry x="470" y="520" width="73" height="30" as="geometry" />
        </mxCell>
        <mxCell id="R0zmebqpnlVrIiYbYnW8-88" value="F" style="ellipse;whiteSpace=wrap;html=1;aspect=fixed;fillColor=#dae8fc;strokeColor=#6c8ebf;rotation=-240;" vertex="1" parent="R0zmebqpnlVrIiYbYnW8-92">
          <mxGeometry x="32" y="-19" width="30" height="30" as="geometry" />
        </mxCell>
        <mxCell id="R0zmebqpnlVrIiYbYnW8-89" value="M" style="ellipse;whiteSpace=wrap;html=1;aspect=fixed;fillColor=#f8cecc;strokeColor=#b85450;rotation=-240;" vertex="1" parent="R0zmebqpnlVrIiYbYnW8-92">
          <mxGeometry x="11" y="19" width="30" height="30" as="geometry" />
        </mxCell>
        <mxCell id="R0zmebqpnlVrIiYbYnW8-90" value="" style="endArrow=none;html=1;rounded=0;entryX=0.5;entryY=0;entryDx=0;entryDy=0;" edge="1" parent="R0zmebqpnlVrIiYbYnW8-92" target="R0zmebqpnlVrIiYbYnW8-89">
          <mxGeometry width="50" height="50" relative="1" as="geometry">
            <mxPoint x="61" y="2" as="sourcePoint" />
            <mxPoint x="80" y="70" as="targetPoint" />
          </mxGeometry>
        </mxCell>
        <mxCell id="R0zmebqpnlVrIiYbYnW8-91" value="" style="endArrow=none;html=1;rounded=0;entryX=0.5;entryY=1;entryDx=0;entryDy=0;" edge="1" parent="R0zmebqpnlVrIiYbYnW8-92" target="R0zmebqpnlVrIiYbYnW8-89">
          <mxGeometry width="50" height="50" relative="1" as="geometry">
            <mxPoint x="35" y="-13" as="sourcePoint" />
            <mxPoint x="54" y="55" as="targetPoint" />
          </mxGeometry>
        </mxCell>
        <mxCell id="R0zmebqpnlVrIiYbYnW8-94" style="edgeStyle=orthogonalEdgeStyle;rounded=0;orthogonalLoop=1;jettySize=auto;html=1;" edge="1" parent="1" source="R0zmebqpnlVrIiYbYnW8-88" target="R0zmebqpnlVrIiYbYnW8-67">
          <mxGeometry relative="1" as="geometry" />
        </mxCell>
        <mxCell id="R0zmebqpnlVrIiYbYnW8-95" value="F" style="ellipse;whiteSpace=wrap;html=1;aspect=fixed;fillColor=#dae8fc;strokeColor=#6c8ebf;" vertex="1" parent="1">
          <mxGeometry x="-1323.5" y="840" width="30" height="30" as="geometry" />
        </mxCell>
        <mxCell id="R0zmebqpnlVrIiYbYnW8-96" value="F" style="ellipse;whiteSpace=wrap;html=1;aspect=fixed;fillColor=#d5e8d4;strokeColor=#82b366;" vertex="1" parent="1">
          <mxGeometry x="-1280.5" y="840" width="30" height="30" as="geometry" />
        </mxCell>
        <mxCell id="R0zmebqpnlVrIiYbYnW8-97" value="&lt;p style=&quot;margin: 0px; font-variant-numeric: normal; font-variant-east-asian: normal; font-variant-alternates: normal; font-kerning: auto; font-optical-sizing: auto; font-feature-settings: normal; font-variation-settings: normal; font-stretch: normal; line-height: normal; font-family: &amp;quot;Helvetica Neue&amp;quot;;&quot; class=&quot;p1&quot;&gt;&lt;font style=&quot;font-size: 12px;&quot;&gt;Raccord 25 mm à filetage 20/27 3/4&quot; femelle Gardena - 2761-20&lt;/font&gt;&lt;/p&gt;" style="text;whiteSpace=wrap;html=1;strokeColor=default;" vertex="1" parent="1">
          <mxGeometry x="-1210.5" y="830" width="270" height="50" as="geometry" />
        </mxCell>
        <mxCell id="R0zmebqpnlVrIiYbYnW8-98" value="" style="endArrow=none;html=1;rounded=0;entryX=0.5;entryY=0;entryDx=0;entryDy=0;" edge="1" parent="1" target="R0zmebqpnlVrIiYbYnW8-96">
          <mxGeometry width="50" height="50" relative="1" as="geometry">
            <mxPoint x="-1310.5" y="840" as="sourcePoint" />
            <mxPoint x="-1260.5" y="790" as="targetPoint" />
          </mxGeometry>
        </mxCell>
        <mxCell id="R0zmebqpnlVrIiYbYnW8-99" value="" style="endArrow=none;html=1;rounded=0;entryX=0.5;entryY=1;entryDx=0;entryDy=0;" edge="1" parent="1" target="R0zmebqpnlVrIiYbYnW8-96">
          <mxGeometry width="50" height="50" relative="1" as="geometry">
            <mxPoint x="-1310.5" y="870" as="sourcePoint" />
            <mxPoint x="-1260.5" y="820" as="targetPoint" />
          </mxGeometry>
        </mxCell>
        <mxCell id="R0zmebqpnlVrIiYbYnW8-100" value="&lt;p class=&quot;p1&quot;&gt;&lt;br&gt;&lt;/p&gt;" style="text;whiteSpace=wrap;html=1;strokeColor=default;" vertex="1" parent="1">
          <mxGeometry x="-1210.5" y="895" width="270" height="60" as="geometry" />
        </mxCell>
        <mxCell id="R0zmebqpnlVrIiYbYnW8-101" value="F" style="ellipse;whiteSpace=wrap;html=1;aspect=fixed;fillColor=#dae8fc;strokeColor=#6c8ebf;" vertex="1" parent="1">
          <mxGeometry x="-1323.5" y="909.5" width="30" height="30" as="geometry" />
        </mxCell>
        <mxCell id="R0zmebqpnlVrIiYbYnW8-102" value="M" style="ellipse;whiteSpace=wrap;html=1;aspect=fixed;fillColor=#d5e8d4;strokeColor=#82b366;" vertex="1" parent="1">
          <mxGeometry x="-1280.5" y="909.5" width="30" height="30" as="geometry" />
        </mxCell>
        <mxCell id="R0zmebqpnlVrIiYbYnW8-103" value="" style="endArrow=none;html=1;rounded=0;entryX=0.5;entryY=0;entryDx=0;entryDy=0;" edge="1" parent="1" target="R0zmebqpnlVrIiYbYnW8-102">
          <mxGeometry width="50" height="50" relative="1" as="geometry">
            <mxPoint x="-1310.5" y="909.5" as="sourcePoint" />
            <mxPoint x="-1260.5" y="859.5" as="targetPoint" />
          </mxGeometry>
        </mxCell>
        <mxCell id="R0zmebqpnlVrIiYbYnW8-104" value="" style="endArrow=none;html=1;rounded=0;entryX=0.5;entryY=1;entryDx=0;entryDy=0;" edge="1" parent="1" target="R0zmebqpnlVrIiYbYnW8-102">
          <mxGeometry width="50" height="50" relative="1" as="geometry">
            <mxPoint x="-1310.5" y="939.5" as="sourcePoint" />
            <mxPoint x="-1260.5" y="889.5" as="targetPoint" />
          </mxGeometry>
        </mxCell>
        <mxCell id="R0zmebqpnlVrIiYbYnW8-109" value="" style="group;rotation=-60;" vertex="1" connectable="0" parent="1">
          <mxGeometry x="680" y="260" width="73" height="30" as="geometry" />
        </mxCell>
        <mxCell id="R0zmebqpnlVrIiYbYnW8-105" value="F" style="ellipse;whiteSpace=wrap;html=1;aspect=fixed;fillColor=#dae8fc;strokeColor=#6c8ebf;rotation=-60;" vertex="1" parent="R0zmebqpnlVrIiYbYnW8-109">
          <mxGeometry x="11" y="19" width="30" height="30" as="geometry" />
        </mxCell>
        <mxCell id="R0zmebqpnlVrIiYbYnW8-106" value="F" style="ellipse;whiteSpace=wrap;html=1;aspect=fixed;fillColor=#d5e8d4;strokeColor=#82b366;rotation=-60;" vertex="1" parent="R0zmebqpnlVrIiYbYnW8-109">
          <mxGeometry x="32" y="-19" width="30" height="30" as="geometry" />
        </mxCell>
        <mxCell id="R0zmebqpnlVrIiYbYnW8-107" value="" style="endArrow=none;html=1;rounded=0;entryX=0.5;entryY=0;entryDx=0;entryDy=0;" edge="1" parent="R0zmebqpnlVrIiYbYnW8-109" target="R0zmebqpnlVrIiYbYnW8-106">
          <mxGeometry width="50" height="50" relative="1" as="geometry">
            <mxPoint x="12" y="28" as="sourcePoint" />
            <mxPoint x="-7" y="-40" as="targetPoint" />
          </mxGeometry>
        </mxCell>
        <mxCell id="R0zmebqpnlVrIiYbYnW8-108" value="" style="endArrow=none;html=1;rounded=0;entryX=0.5;entryY=1;entryDx=0;entryDy=0;" edge="1" parent="R0zmebqpnlVrIiYbYnW8-109" target="R0zmebqpnlVrIiYbYnW8-106">
          <mxGeometry width="50" height="50" relative="1" as="geometry">
            <mxPoint x="38" y="43" as="sourcePoint" />
            <mxPoint x="19" y="-25" as="targetPoint" />
          </mxGeometry>
        </mxCell>
        <mxCell id="R0zmebqpnlVrIiYbYnW8-111" value="" style="group;rotation=90;" vertex="1" connectable="0" parent="1">
          <mxGeometry x="310" y="-149" width="73" height="30" as="geometry" />
        </mxCell>
        <mxCell id="R0zmebqpnlVrIiYbYnW8-112" value="F" style="ellipse;whiteSpace=wrap;html=1;aspect=fixed;fillColor=#dae8fc;strokeColor=#6c8ebf;rotation=90;" vertex="1" parent="R0zmebqpnlVrIiYbYnW8-111">
          <mxGeometry x="21" y="-22" width="30" height="30" as="geometry" />
        </mxCell>
        <mxCell id="R0zmebqpnlVrIiYbYnW8-113" value="F" style="ellipse;whiteSpace=wrap;html=1;aspect=fixed;fillColor=#d5e8d4;strokeColor=#82b366;rotation=90;" vertex="1" parent="R0zmebqpnlVrIiYbYnW8-111">
          <mxGeometry x="22" y="22" width="30" height="30" as="geometry" />
        </mxCell>
        <mxCell id="R0zmebqpnlVrIiYbYnW8-114" value="" style="endArrow=none;html=1;rounded=0;entryX=0.5;entryY=0;entryDx=0;entryDy=0;" edge="1" parent="R0zmebqpnlVrIiYbYnW8-111" target="R0zmebqpnlVrIiYbYnW8-113">
          <mxGeometry width="50" height="50" relative="1" as="geometry">
            <mxPoint x="51" y="-9" as="sourcePoint" />
            <mxPoint x="102" y="41" as="targetPoint" />
          </mxGeometry>
        </mxCell>
        <mxCell id="R0zmebqpnlVrIiYbYnW8-115" value="" style="endArrow=none;html=1;rounded=0;entryX=0.5;entryY=1;entryDx=0;entryDy=0;" edge="1" parent="R0zmebqpnlVrIiYbYnW8-111" target="R0zmebqpnlVrIiYbYnW8-113">
          <mxGeometry width="50" height="50" relative="1" as="geometry">
            <mxPoint x="21" y="-8" as="sourcePoint" />
            <mxPoint x="72" y="41" as="targetPoint" />
          </mxGeometry>
        </mxCell>
        <mxCell id="R0zmebqpnlVrIiYbYnW8-116" style="edgeStyle=orthogonalEdgeStyle;rounded=0;orthogonalLoop=1;jettySize=auto;html=1;entryX=0.5;entryY=0;entryDx=0;entryDy=0;fontSize=12;" edge="1" parent="1" source="R0zmebqpnlVrIiYbYnW8-113" target="R0zmebqpnlVrIiYbYnW8-17">
          <mxGeometry relative="1" as="geometry" />
        </mxCell>
        <mxCell id="R0zmebqpnlVrIiYbYnW8-117" value="" style="group;rotation=90;" vertex="1" connectable="0" parent="1">
          <mxGeometry x="253.5" y="41" width="73" height="30" as="geometry" />
        </mxCell>
        <mxCell id="R0zmebqpnlVrIiYbYnW8-118" value="F" style="ellipse;whiteSpace=wrap;html=1;aspect=fixed;fillColor=#dae8fc;strokeColor=#6c8ebf;rotation=90;" vertex="1" parent="R0zmebqpnlVrIiYbYnW8-117">
          <mxGeometry x="21" y="-22" width="30" height="30" as="geometry" />
        </mxCell>
        <mxCell id="R0zmebqpnlVrIiYbYnW8-119" value="F" style="ellipse;whiteSpace=wrap;html=1;aspect=fixed;fillColor=#d5e8d4;strokeColor=#82b366;rotation=90;" vertex="1" parent="R0zmebqpnlVrIiYbYnW8-117">
          <mxGeometry x="22" y="22" width="30" height="30" as="geometry" />
        </mxCell>
        <mxCell id="R0zmebqpnlVrIiYbYnW8-120" value="" style="endArrow=none;html=1;rounded=0;entryX=0.5;entryY=0;entryDx=0;entryDy=0;" edge="1" parent="R0zmebqpnlVrIiYbYnW8-117" target="R0zmebqpnlVrIiYbYnW8-119">
          <mxGeometry width="50" height="50" relative="1" as="geometry">
            <mxPoint x="51" y="-9" as="sourcePoint" />
            <mxPoint x="102" y="41" as="targetPoint" />
          </mxGeometry>
        </mxCell>
        <mxCell id="R0zmebqpnlVrIiYbYnW8-121" value="" style="endArrow=none;html=1;rounded=0;entryX=0.5;entryY=1;entryDx=0;entryDy=0;" edge="1" parent="R0zmebqpnlVrIiYbYnW8-117" target="R0zmebqpnlVrIiYbYnW8-119">
          <mxGeometry width="50" height="50" relative="1" as="geometry">
            <mxPoint x="21" y="-8" as="sourcePoint" />
            <mxPoint x="72" y="41" as="targetPoint" />
          </mxGeometry>
        </mxCell>
        <mxCell id="R0zmebqpnlVrIiYbYnW8-122" style="edgeStyle=orthogonalEdgeStyle;rounded=0;orthogonalLoop=1;jettySize=auto;html=1;fontSize=12;" edge="1" parent="1" source="R0zmebqpnlVrIiYbYnW8-119" target="R0zmebqpnlVrIiYbYnW8-14">
          <mxGeometry relative="1" as="geometry" />
        </mxCell>
        <mxCell id="R0zmebqpnlVrIiYbYnW8-129" value="" style="group;rotation=90;" vertex="1" connectable="0" parent="1">
          <mxGeometry x="475" y="-89" width="73" height="30" as="geometry" />
        </mxCell>
        <mxCell id="R0zmebqpnlVrIiYbYnW8-130" value="F" style="ellipse;whiteSpace=wrap;html=1;aspect=fixed;fillColor=#dae8fc;strokeColor=#6c8ebf;rotation=90;" vertex="1" parent="R0zmebqpnlVrIiYbYnW8-129">
          <mxGeometry x="21" y="-22" width="30" height="30" as="geometry" />
        </mxCell>
        <mxCell id="R0zmebqpnlVrIiYbYnW8-131" value="F" style="ellipse;whiteSpace=wrap;html=1;aspect=fixed;fillColor=#d5e8d4;strokeColor=#82b366;rotation=90;" vertex="1" parent="R0zmebqpnlVrIiYbYnW8-129">
          <mxGeometry x="22" y="22" width="30" height="30" as="geometry" />
        </mxCell>
        <mxCell id="R0zmebqpnlVrIiYbYnW8-132" value="" style="endArrow=none;html=1;rounded=0;entryX=0.5;entryY=0;entryDx=0;entryDy=0;" edge="1" parent="R0zmebqpnlVrIiYbYnW8-129" target="R0zmebqpnlVrIiYbYnW8-131">
          <mxGeometry width="50" height="50" relative="1" as="geometry">
            <mxPoint x="51" y="-9" as="sourcePoint" />
            <mxPoint x="102" y="41" as="targetPoint" />
          </mxGeometry>
        </mxCell>
        <mxCell id="R0zmebqpnlVrIiYbYnW8-133" value="" style="endArrow=none;html=1;rounded=0;entryX=0.5;entryY=1;entryDx=0;entryDy=0;" edge="1" parent="R0zmebqpnlVrIiYbYnW8-129" target="R0zmebqpnlVrIiYbYnW8-131">
          <mxGeometry width="50" height="50" relative="1" as="geometry">
            <mxPoint x="21" y="-8" as="sourcePoint" />
            <mxPoint x="72" y="41" as="targetPoint" />
          </mxGeometry>
        </mxCell>
        <mxCell id="R0zmebqpnlVrIiYbYnW8-134" value="" style="group;rotation=-90;" vertex="1" connectable="0" parent="1">
          <mxGeometry x="475" y="-349" width="73" height="30" as="geometry" />
        </mxCell>
        <mxCell id="R0zmebqpnlVrIiYbYnW8-135" value="F" style="ellipse;whiteSpace=wrap;html=1;aspect=fixed;fillColor=#dae8fc;strokeColor=#6c8ebf;rotation=-90;" vertex="1" parent="R0zmebqpnlVrIiYbYnW8-134">
          <mxGeometry x="22" y="22" width="30" height="30" as="geometry" />
        </mxCell>
        <mxCell id="R0zmebqpnlVrIiYbYnW8-136" value="F" style="ellipse;whiteSpace=wrap;html=1;aspect=fixed;fillColor=#d5e8d4;strokeColor=#82b366;rotation=-90;" vertex="1" parent="R0zmebqpnlVrIiYbYnW8-134">
          <mxGeometry x="21" y="-22" width="30" height="30" as="geometry" />
        </mxCell>
        <mxCell id="R0zmebqpnlVrIiYbYnW8-137" value="" style="endArrow=none;html=1;rounded=0;entryX=0.5;entryY=0;entryDx=0;entryDy=0;" edge="1" parent="R0zmebqpnlVrIiYbYnW8-134" target="R0zmebqpnlVrIiYbYnW8-136">
          <mxGeometry width="50" height="50" relative="1" as="geometry">
            <mxPoint x="22" y="39" as="sourcePoint" />
            <mxPoint x="-29" y="-11" as="targetPoint" />
          </mxGeometry>
        </mxCell>
        <mxCell id="R0zmebqpnlVrIiYbYnW8-138" value="" style="endArrow=none;html=1;rounded=0;entryX=0.5;entryY=1;entryDx=0;entryDy=0;" edge="1" parent="R0zmebqpnlVrIiYbYnW8-134" target="R0zmebqpnlVrIiYbYnW8-136">
          <mxGeometry width="50" height="50" relative="1" as="geometry">
            <mxPoint x="52" y="38" as="sourcePoint" />
            <mxPoint x="1" y="-11" as="targetPoint" />
          </mxGeometry>
        </mxCell>
        <mxCell id="R0zmebqpnlVrIiYbYnW8-139" value="" style="group;rotation=90;" vertex="1" connectable="0" parent="1">
          <mxGeometry x="270" y="-399" width="73" height="30" as="geometry" />
        </mxCell>
        <mxCell id="R0zmebqpnlVrIiYbYnW8-140" value="F" style="ellipse;whiteSpace=wrap;html=1;aspect=fixed;fillColor=#dae8fc;strokeColor=#6c8ebf;rotation=90;" vertex="1" parent="R0zmebqpnlVrIiYbYnW8-139">
          <mxGeometry x="21" y="-21" width="30" height="30" as="geometry" />
        </mxCell>
        <mxCell id="R0zmebqpnlVrIiYbYnW8-141" value="F" style="ellipse;whiteSpace=wrap;html=1;aspect=fixed;fillColor=#f8cecc;strokeColor=#b85450;rotation=90;" vertex="1" parent="R0zmebqpnlVrIiYbYnW8-139">
          <mxGeometry x="22" y="22" width="30" height="30" as="geometry" />
        </mxCell>
        <mxCell id="R0zmebqpnlVrIiYbYnW8-142" value="" style="endArrow=none;html=1;rounded=0;entryX=0.5;entryY=0;entryDx=0;entryDy=0;" edge="1" parent="R0zmebqpnlVrIiYbYnW8-139" target="R0zmebqpnlVrIiYbYnW8-141">
          <mxGeometry width="50" height="50" relative="1" as="geometry">
            <mxPoint x="51" y="-8" as="sourcePoint" />
            <mxPoint x="101" y="42" as="targetPoint" />
          </mxGeometry>
        </mxCell>
        <mxCell id="R0zmebqpnlVrIiYbYnW8-143" value="" style="endArrow=none;html=1;rounded=0;entryX=0.5;entryY=1;entryDx=0;entryDy=0;" edge="1" parent="R0zmebqpnlVrIiYbYnW8-139" target="R0zmebqpnlVrIiYbYnW8-141">
          <mxGeometry width="50" height="50" relative="1" as="geometry">
            <mxPoint x="21" y="-8" as="sourcePoint" />
            <mxPoint x="71" y="42" as="targetPoint" />
          </mxGeometry>
        </mxCell>
        <mxCell id="R0zmebqpnlVrIiYbYnW8-144" style="edgeStyle=orthogonalEdgeStyle;rounded=0;orthogonalLoop=1;jettySize=auto;html=1;entryX=0;entryY=0;entryDx=0;entryDy=0;fontSize=12;" edge="1" parent="1" source="R0zmebqpnlVrIiYbYnW8-141" target="R0zmebqpnlVrIiYbYnW8-6">
          <mxGeometry relative="1" as="geometry" />
        </mxCell>
        <mxCell id="R0zmebqpnlVrIiYbYnW8-158" value="" style="group;rotation=-90;" vertex="1" connectable="0" parent="1">
          <mxGeometry x="440" y="-239" width="108" height="70" as="geometry" />
        </mxCell>
        <mxCell id="R0zmebqpnlVrIiYbYnW8-151" value="F" style="ellipse;whiteSpace=wrap;html=1;aspect=fixed;fillColor=#dae8fc;strokeColor=#6c8ebf;rotation=-90;" vertex="1" parent="R0zmebqpnlVrIiYbYnW8-158">
          <mxGeometry x="59" y="59" width="30" height="30" as="geometry" />
        </mxCell>
        <mxCell id="R0zmebqpnlVrIiYbYnW8-159" value="" style="edgeStyle=orthogonalEdgeStyle;rounded=0;orthogonalLoop=1;jettySize=auto;html=1;fontSize=12;" edge="1" parent="R0zmebqpnlVrIiYbYnW8-158" source="R0zmebqpnlVrIiYbYnW8-152" target="R0zmebqpnlVrIiYbYnW8-151">
          <mxGeometry relative="1" as="geometry" />
        </mxCell>
        <mxCell id="R0zmebqpnlVrIiYbYnW8-152" value="F" style="ellipse;whiteSpace=wrap;html=1;aspect=fixed;fillColor=#dae8fc;strokeColor=#6c8ebf;rotation=-90;" vertex="1" parent="R0zmebqpnlVrIiYbYnW8-158">
          <mxGeometry x="59" y="-19" width="30" height="30" as="geometry" />
        </mxCell>
        <mxCell id="R0zmebqpnlVrIiYbYnW8-153" value="F" style="ellipse;whiteSpace=wrap;html=1;aspect=fixed;fillColor=#dae8fc;strokeColor=#6c8ebf;rotation=-90;" vertex="1" parent="R0zmebqpnlVrIiYbYnW8-158">
          <mxGeometry x="19" y="21" width="30" height="30" as="geometry" />
        </mxCell>
        <mxCell id="R0zmebqpnlVrIiYbYnW8-154" value="" style="endArrow=none;html=1;rounded=0;entryX=0.5;entryY=0;entryDx=0;entryDy=0;" edge="1" parent="R0zmebqpnlVrIiYbYnW8-158" target="R0zmebqpnlVrIiYbYnW8-152">
          <mxGeometry width="50" height="50" relative="1" as="geometry">
            <mxPoint x="59" y="74" as="sourcePoint" />
            <mxPoint x="9" y="24" as="targetPoint" />
          </mxGeometry>
        </mxCell>
        <mxCell id="R0zmebqpnlVrIiYbYnW8-155" value="" style="endArrow=none;html=1;rounded=0;entryX=0.5;entryY=1;entryDx=0;entryDy=0;" edge="1" parent="R0zmebqpnlVrIiYbYnW8-158" target="R0zmebqpnlVrIiYbYnW8-152">
          <mxGeometry width="50" height="50" relative="1" as="geometry">
            <mxPoint x="89" y="71" as="sourcePoint" />
            <mxPoint x="39" y="21" as="targetPoint" />
          </mxGeometry>
        </mxCell>
        <mxCell id="R0zmebqpnlVrIiYbYnW8-156" value="" style="endArrow=none;html=1;rounded=0;entryX=0;entryY=0.5;entryDx=0;entryDy=0;" edge="1" parent="R0zmebqpnlVrIiYbYnW8-158" target="R0zmebqpnlVrIiYbYnW8-153">
          <mxGeometry width="50" height="50" relative="1" as="geometry">
            <mxPoint x="59" y="51" as="sourcePoint" />
            <mxPoint x="-1" y="-199" as="targetPoint" />
          </mxGeometry>
        </mxCell>
        <mxCell id="R0zmebqpnlVrIiYbYnW8-157" value="" style="endArrow=none;html=1;rounded=0;entryX=0;entryY=0.5;entryDx=0;entryDy=0;" edge="1" parent="R0zmebqpnlVrIiYbYnW8-158">
          <mxGeometry width="50" height="50" relative="1" as="geometry">
            <mxPoint x="59" y="21" as="sourcePoint" />
            <mxPoint x="34" y="21" as="targetPoint" />
          </mxGeometry>
        </mxCell>
        <mxCell id="R0zmebqpnlVrIiYbYnW8-160" style="edgeStyle=orthogonalEdgeStyle;rounded=0;orthogonalLoop=1;jettySize=auto;html=1;fontSize=12;strokeColor=#0000FF;" edge="1" parent="1" source="R0zmebqpnlVrIiYbYnW8-146" target="R0zmebqpnlVrIiYbYnW8-153">
          <mxGeometry relative="1" as="geometry" />
        </mxCell>
        <mxCell id="R0zmebqpnlVrIiYbYnW8-161" style="edgeStyle=orthogonalEdgeStyle;rounded=0;orthogonalLoop=1;jettySize=auto;html=1;exitX=1;exitY=0.5;exitDx=0;exitDy=0;fontSize=12;strokeColor=#0000FF;" edge="1" parent="1">
          <mxGeometry relative="1" as="geometry">
            <mxPoint x="515" y="-258" as="sourcePoint" />
            <mxPoint x="513" y="-297" as="targetPoint" />
          </mxGeometry>
        </mxCell>
        <mxCell id="R0zmebqpnlVrIiYbYnW8-162" style="edgeStyle=orthogonalEdgeStyle;rounded=0;orthogonalLoop=1;jettySize=auto;html=1;fontSize=12;strokeColor=#0000FF;" edge="1" parent="1" source="R0zmebqpnlVrIiYbYnW8-151" target="R0zmebqpnlVrIiYbYnW8-130">
          <mxGeometry relative="1" as="geometry" />
        </mxCell>
        <mxCell id="R0zmebqpnlVrIiYbYnW8-165" value="" style="endArrow=none;html=1;rounded=0;strokeColor=#FF3399;strokeWidth=4;fontSize=12;" edge="1" parent="1">
          <mxGeometry width="50" height="50" relative="1" as="geometry">
            <mxPoint x="-1315" y="1030" as="sourcePoint" />
            <mxPoint x="-1252" y="1030" as="targetPoint" />
          </mxGeometry>
        </mxCell>
        <mxCell id="R0zmebqpnlVrIiYbYnW8-169" value="" style="endArrow=none;html=1;rounded=0;strokeColor=#0000FF;strokeWidth=4;fontSize=12;" edge="1" parent="1">
          <mxGeometry width="50" height="50" relative="1" as="geometry">
            <mxPoint x="-1315" y="1100" as="sourcePoint" />
            <mxPoint x="-1252" y="1100" as="targetPoint" />
          </mxGeometry>
        </mxCell>
        <mxCell id="R0zmebqpnlVrIiYbYnW8-170" value="&lt;p class=&quot;p1&quot;&gt;Tuyau 30 mm&lt;br&gt;&lt;/p&gt;" style="text;whiteSpace=wrap;html=1;strokeColor=default;align=center;" vertex="1" parent="1">
          <mxGeometry x="-1222" y="1000" width="270" height="60" as="geometry" />
        </mxCell>
        <mxCell id="R0zmebqpnlVrIiYbYnW8-171" value="&lt;p class=&quot;p1&quot;&gt;Tuyau 25 mm&lt;/p&gt;" style="text;whiteSpace=wrap;html=1;strokeColor=default;align=center;" vertex="1" parent="1">
          <mxGeometry x="-1222" y="1080" width="270" height="60" as="geometry" />
        </mxCell>
        <mxCell id="R0zmebqpnlVrIiYbYnW8-172" value="" style="group;rotation=0;" vertex="1" connectable="0" parent="1">
          <mxGeometry x="50" y="-309" width="73" height="30" as="geometry" />
        </mxCell>
        <mxCell id="R0zmebqpnlVrIiYbYnW8-173" value="F" style="ellipse;whiteSpace=wrap;html=1;aspect=fixed;fillColor=#dae8fc;strokeColor=#6c8ebf;rotation=0;" vertex="1" parent="R0zmebqpnlVrIiYbYnW8-172">
          <mxGeometry x="1" width="30" height="30" as="geometry" />
        </mxCell>
        <mxCell id="R0zmebqpnlVrIiYbYnW8-174" value="F" style="ellipse;whiteSpace=wrap;html=1;aspect=fixed;fillColor=#f8cecc;strokeColor=#b85450;rotation=0;" vertex="1" parent="R0zmebqpnlVrIiYbYnW8-172">
          <mxGeometry x="44" width="30" height="30" as="geometry" />
        </mxCell>
        <mxCell id="R0zmebqpnlVrIiYbYnW8-175" value="" style="endArrow=none;html=1;rounded=0;entryX=0.5;entryY=0;entryDx=0;entryDy=0;" edge="1" parent="R0zmebqpnlVrIiYbYnW8-172" target="R0zmebqpnlVrIiYbYnW8-174">
          <mxGeometry width="50" height="50" relative="1" as="geometry">
            <mxPoint x="14" as="sourcePoint" />
            <mxPoint x="64" y="-49" as="targetPoint" />
          </mxGeometry>
        </mxCell>
        <mxCell id="R0zmebqpnlVrIiYbYnW8-176" value="" style="endArrow=none;html=1;rounded=0;entryX=0.5;entryY=1;entryDx=0;entryDy=0;" edge="1" parent="R0zmebqpnlVrIiYbYnW8-172" target="R0zmebqpnlVrIiYbYnW8-174">
          <mxGeometry width="50" height="50" relative="1" as="geometry">
            <mxPoint x="14" y="31" as="sourcePoint" />
            <mxPoint x="64" y="-19" as="targetPoint" />
          </mxGeometry>
        </mxCell>
        <mxCell id="R0zmebqpnlVrIiYbYnW8-182" value="" style="group;rotation=0;" vertex="1" connectable="0" parent="1">
          <mxGeometry x="50" y="-259" width="73" height="30" as="geometry" />
        </mxCell>
        <mxCell id="R0zmebqpnlVrIiYbYnW8-183" value="F" style="ellipse;whiteSpace=wrap;html=1;aspect=fixed;fillColor=#dae8fc;strokeColor=#6c8ebf;rotation=0;" vertex="1" parent="R0zmebqpnlVrIiYbYnW8-182">
          <mxGeometry x="1" width="30" height="30" as="geometry" />
        </mxCell>
        <mxCell id="R0zmebqpnlVrIiYbYnW8-184" value="F" style="ellipse;whiteSpace=wrap;html=1;aspect=fixed;fillColor=#f8cecc;strokeColor=#b85450;rotation=0;" vertex="1" parent="R0zmebqpnlVrIiYbYnW8-182">
          <mxGeometry x="44" width="30" height="30" as="geometry" />
        </mxCell>
        <mxCell id="R0zmebqpnlVrIiYbYnW8-185" value="" style="endArrow=none;html=1;rounded=0;entryX=0.5;entryY=0;entryDx=0;entryDy=0;" edge="1" parent="R0zmebqpnlVrIiYbYnW8-182" target="R0zmebqpnlVrIiYbYnW8-184">
          <mxGeometry width="50" height="50" relative="1" as="geometry">
            <mxPoint x="14" as="sourcePoint" />
            <mxPoint x="64" y="-49" as="targetPoint" />
          </mxGeometry>
        </mxCell>
        <mxCell id="R0zmebqpnlVrIiYbYnW8-186" value="" style="endArrow=none;html=1;rounded=0;entryX=0.5;entryY=1;entryDx=0;entryDy=0;" edge="1" parent="R0zmebqpnlVrIiYbYnW8-182" target="R0zmebqpnlVrIiYbYnW8-184">
          <mxGeometry width="50" height="50" relative="1" as="geometry">
            <mxPoint x="14" y="31" as="sourcePoint" />
            <mxPoint x="64" y="-19" as="targetPoint" />
          </mxGeometry>
        </mxCell>
        <mxCell id="R0zmebqpnlVrIiYbYnW8-187" value="" style="group;rotation=0;" vertex="1" connectable="0" parent="1">
          <mxGeometry x="50" y="-219" width="73" height="30" as="geometry" />
        </mxCell>
        <mxCell id="R0zmebqpnlVrIiYbYnW8-188" value="F" style="ellipse;whiteSpace=wrap;html=1;aspect=fixed;fillColor=#dae8fc;strokeColor=#6c8ebf;rotation=0;" vertex="1" parent="R0zmebqpnlVrIiYbYnW8-187">
          <mxGeometry x="1" width="30" height="30" as="geometry" />
        </mxCell>
        <mxCell id="R0zmebqpnlVrIiYbYnW8-189" value="F" style="ellipse;whiteSpace=wrap;html=1;aspect=fixed;fillColor=#f8cecc;strokeColor=#b85450;rotation=0;" vertex="1" parent="R0zmebqpnlVrIiYbYnW8-187">
          <mxGeometry x="44" width="30" height="30" as="geometry" />
        </mxCell>
        <mxCell id="R0zmebqpnlVrIiYbYnW8-190" value="" style="endArrow=none;html=1;rounded=0;entryX=0.5;entryY=0;entryDx=0;entryDy=0;" edge="1" parent="R0zmebqpnlVrIiYbYnW8-187" target="R0zmebqpnlVrIiYbYnW8-189">
          <mxGeometry width="50" height="50" relative="1" as="geometry">
            <mxPoint x="14" as="sourcePoint" />
            <mxPoint x="64" y="-49" as="targetPoint" />
          </mxGeometry>
        </mxCell>
        <mxCell id="R0zmebqpnlVrIiYbYnW8-191" value="" style="endArrow=none;html=1;rounded=0;entryX=0.5;entryY=1;entryDx=0;entryDy=0;" edge="1" parent="R0zmebqpnlVrIiYbYnW8-187" target="R0zmebqpnlVrIiYbYnW8-189">
          <mxGeometry width="50" height="50" relative="1" as="geometry">
            <mxPoint x="14" y="31" as="sourcePoint" />
            <mxPoint x="64" y="-19" as="targetPoint" />
          </mxGeometry>
        </mxCell>
        <mxCell id="R0zmebqpnlVrIiYbYnW8-192" style="edgeStyle=orthogonalEdgeStyle;rounded=0;orthogonalLoop=1;jettySize=auto;html=1;entryX=0.25;entryY=1;entryDx=0;entryDy=0;strokeColor=default;strokeWidth=1;fontSize=12;" edge="1" parent="1" source="R0zmebqpnlVrIiYbYnW8-174" target="R0zmebqpnlVrIiYbYnW8-6">
          <mxGeometry relative="1" as="geometry" />
        </mxCell>
        <mxCell id="R0zmebqpnlVrIiYbYnW8-193" style="edgeStyle=orthogonalEdgeStyle;rounded=0;orthogonalLoop=1;jettySize=auto;html=1;strokeColor=default;strokeWidth=1;fontSize=12;" edge="1" parent="1" source="R0zmebqpnlVrIiYbYnW8-184" target="R0zmebqpnlVrIiYbYnW8-6">
          <mxGeometry relative="1" as="geometry" />
        </mxCell>
        <mxCell id="R0zmebqpnlVrIiYbYnW8-194" style="edgeStyle=orthogonalEdgeStyle;rounded=0;orthogonalLoop=1;jettySize=auto;html=1;entryX=0.75;entryY=1;entryDx=0;entryDy=0;strokeColor=default;strokeWidth=1;fontSize=12;" edge="1" parent="1" source="R0zmebqpnlVrIiYbYnW8-189" target="R0zmebqpnlVrIiYbYnW8-6">
          <mxGeometry relative="1" as="geometry" />
        </mxCell>
        <mxCell id="R0zmebqpnlVrIiYbYnW8-211" value="" style="group" vertex="1" connectable="0" parent="1">
          <mxGeometry x="-280" y="9.5" width="40" height="131.5" as="geometry" />
        </mxCell>
        <mxCell id="R0zmebqpnlVrIiYbYnW8-19" value="Zone3" style="ellipse;whiteSpace=wrap;html=1;" vertex="1" parent="R0zmebqpnlVrIiYbYnW8-211">
          <mxGeometry y="91.5" width="40" height="40" as="geometry" />
        </mxCell>
        <mxCell id="R0zmebqpnlVrIiYbYnW8-123" value="" style="group;rotation=90;" vertex="1" connectable="0" parent="R0zmebqpnlVrIiYbYnW8-211">
          <mxGeometry x="-20" y="21.5" width="73" height="30" as="geometry" />
        </mxCell>
        <mxCell id="R0zmebqpnlVrIiYbYnW8-124" value="F" style="ellipse;whiteSpace=wrap;html=1;aspect=fixed;fillColor=#dae8fc;strokeColor=#6c8ebf;rotation=90;" vertex="1" parent="R0zmebqpnlVrIiYbYnW8-123">
          <mxGeometry x="21" y="-22" width="30" height="30" as="geometry" />
        </mxCell>
        <mxCell id="R0zmebqpnlVrIiYbYnW8-125" value="F" style="ellipse;whiteSpace=wrap;html=1;aspect=fixed;fillColor=#d5e8d4;strokeColor=#82b366;rotation=90;" vertex="1" parent="R0zmebqpnlVrIiYbYnW8-123">
          <mxGeometry x="22" y="22" width="30" height="30" as="geometry" />
        </mxCell>
        <mxCell id="R0zmebqpnlVrIiYbYnW8-126" value="" style="endArrow=none;html=1;rounded=0;entryX=0.5;entryY=0;entryDx=0;entryDy=0;" edge="1" parent="R0zmebqpnlVrIiYbYnW8-123" target="R0zmebqpnlVrIiYbYnW8-125">
          <mxGeometry width="50" height="50" relative="1" as="geometry">
            <mxPoint x="51" y="-9" as="sourcePoint" />
            <mxPoint x="102" y="41" as="targetPoint" />
          </mxGeometry>
        </mxCell>
        <mxCell id="R0zmebqpnlVrIiYbYnW8-127" value="" style="endArrow=none;html=1;rounded=0;entryX=0.5;entryY=1;entryDx=0;entryDy=0;" edge="1" parent="R0zmebqpnlVrIiYbYnW8-123" target="R0zmebqpnlVrIiYbYnW8-125">
          <mxGeometry width="50" height="50" relative="1" as="geometry">
            <mxPoint x="21" y="-8" as="sourcePoint" />
            <mxPoint x="72" y="41" as="targetPoint" />
          </mxGeometry>
        </mxCell>
        <mxCell id="R0zmebqpnlVrIiYbYnW8-128" style="edgeStyle=orthogonalEdgeStyle;rounded=0;orthogonalLoop=1;jettySize=auto;html=1;exitX=1;exitY=0.5;exitDx=0;exitDy=0;fontSize=12;" edge="1" parent="R0zmebqpnlVrIiYbYnW8-211" source="R0zmebqpnlVrIiYbYnW8-125" target="R0zmebqpnlVrIiYbYnW8-19">
          <mxGeometry relative="1" as="geometry" />
        </mxCell>
        <mxCell id="R0zmebqpnlVrIiYbYnW8-212" value="Zone 4" style="ellipse;whiteSpace=wrap;html=1;" vertex="1" parent="1">
          <mxGeometry x="-390" y="312" width="40" height="40" as="geometry" />
        </mxCell>
        <mxCell id="R0zmebqpnlVrIiYbYnW8-213" value="" style="group;rotation=90;" vertex="1" connectable="0" parent="1">
          <mxGeometry x="-410" y="242" width="73" height="30" as="geometry" />
        </mxCell>
        <mxCell id="R0zmebqpnlVrIiYbYnW8-214" value="F" style="ellipse;whiteSpace=wrap;html=1;aspect=fixed;fillColor=#dae8fc;strokeColor=#6c8ebf;rotation=90;" vertex="1" parent="R0zmebqpnlVrIiYbYnW8-213">
          <mxGeometry x="21" y="-22" width="30" height="30" as="geometry" />
        </mxCell>
        <mxCell id="R0zmebqpnlVrIiYbYnW8-215" value="F" style="ellipse;whiteSpace=wrap;html=1;aspect=fixed;fillColor=#d5e8d4;strokeColor=#82b366;rotation=90;" vertex="1" parent="R0zmebqpnlVrIiYbYnW8-213">
          <mxGeometry x="22" y="22" width="30" height="30" as="geometry" />
        </mxCell>
        <mxCell id="R0zmebqpnlVrIiYbYnW8-216" value="" style="endArrow=none;html=1;rounded=0;entryX=0.5;entryY=0;entryDx=0;entryDy=0;" edge="1" parent="R0zmebqpnlVrIiYbYnW8-213" target="R0zmebqpnlVrIiYbYnW8-215">
          <mxGeometry width="50" height="50" relative="1" as="geometry">
            <mxPoint x="51" y="-9" as="sourcePoint" />
            <mxPoint x="102" y="41" as="targetPoint" />
          </mxGeometry>
        </mxCell>
        <mxCell id="R0zmebqpnlVrIiYbYnW8-217" value="" style="endArrow=none;html=1;rounded=0;entryX=0.5;entryY=1;entryDx=0;entryDy=0;" edge="1" parent="R0zmebqpnlVrIiYbYnW8-213" target="R0zmebqpnlVrIiYbYnW8-215">
          <mxGeometry width="50" height="50" relative="1" as="geometry">
            <mxPoint x="21" y="-8" as="sourcePoint" />
            <mxPoint x="72" y="41" as="targetPoint" />
          </mxGeometry>
        </mxCell>
        <mxCell id="R0zmebqpnlVrIiYbYnW8-218" style="edgeStyle=orthogonalEdgeStyle;rounded=0;orthogonalLoop=1;jettySize=auto;html=1;exitX=1;exitY=0.5;exitDx=0;exitDy=0;fontSize=12;" edge="1" parent="1" source="R0zmebqpnlVrIiYbYnW8-215" target="R0zmebqpnlVrIiYbYnW8-212">
          <mxGeometry relative="1" as="geometry" />
        </mxCell>
        <mxCell id="R0zmebqpnlVrIiYbYnW8-220" value="Zone 5" style="ellipse;whiteSpace=wrap;html=1;" vertex="1" parent="1">
          <mxGeometry x="20" y="432" width="40" height="40" as="geometry" />
        </mxCell>
        <mxCell id="R0zmebqpnlVrIiYbYnW8-221" value="" style="group;rotation=90;" vertex="1" connectable="0" parent="1">
          <mxGeometry y="362" width="73" height="30" as="geometry" />
        </mxCell>
        <mxCell id="R0zmebqpnlVrIiYbYnW8-222" value="F" style="ellipse;whiteSpace=wrap;html=1;aspect=fixed;fillColor=#dae8fc;strokeColor=#6c8ebf;rotation=90;" vertex="1" parent="R0zmebqpnlVrIiYbYnW8-221">
          <mxGeometry x="21" y="-22" width="30" height="30" as="geometry" />
        </mxCell>
        <mxCell id="R0zmebqpnlVrIiYbYnW8-223" value="F" style="ellipse;whiteSpace=wrap;html=1;aspect=fixed;fillColor=#d5e8d4;strokeColor=#82b366;rotation=90;" vertex="1" parent="R0zmebqpnlVrIiYbYnW8-221">
          <mxGeometry x="22" y="22" width="30" height="30" as="geometry" />
        </mxCell>
        <mxCell id="R0zmebqpnlVrIiYbYnW8-224" value="" style="endArrow=none;html=1;rounded=0;entryX=0.5;entryY=0;entryDx=0;entryDy=0;" edge="1" parent="R0zmebqpnlVrIiYbYnW8-221" target="R0zmebqpnlVrIiYbYnW8-223">
          <mxGeometry width="50" height="50" relative="1" as="geometry">
            <mxPoint x="51" y="-9" as="sourcePoint" />
            <mxPoint x="102" y="41" as="targetPoint" />
          </mxGeometry>
        </mxCell>
        <mxCell id="R0zmebqpnlVrIiYbYnW8-225" value="" style="endArrow=none;html=1;rounded=0;entryX=0.5;entryY=1;entryDx=0;entryDy=0;" edge="1" parent="R0zmebqpnlVrIiYbYnW8-221" target="R0zmebqpnlVrIiYbYnW8-223">
          <mxGeometry width="50" height="50" relative="1" as="geometry">
            <mxPoint x="21" y="-8" as="sourcePoint" />
            <mxPoint x="72" y="41" as="targetPoint" />
          </mxGeometry>
        </mxCell>
        <mxCell id="R0zmebqpnlVrIiYbYnW8-226" style="edgeStyle=orthogonalEdgeStyle;rounded=0;orthogonalLoop=1;jettySize=auto;html=1;exitX=1;exitY=0.5;exitDx=0;exitDy=0;fontSize=12;" edge="1" parent="1" source="R0zmebqpnlVrIiYbYnW8-223" target="R0zmebqpnlVrIiYbYnW8-220">
          <mxGeometry relative="1" as="geometry" />
        </mxCell>
        <mxCell id="R0zmebqpnlVrIiYbYnW8-227" value="Zone 5" style="ellipse;whiteSpace=wrap;html=1;" vertex="1" parent="1">
          <mxGeometry x="750" y="120" width="40" height="40" as="geometry" />
        </mxCell>
        <mxCell id="R0zmebqpnlVrIiYbYnW8-228" value="" style="group;rotation=90;" vertex="1" connectable="0" parent="1">
          <mxGeometry x="730" y="50" width="73" height="30" as="geometry" />
        </mxCell>
        <mxCell id="R0zmebqpnlVrIiYbYnW8-229" value="F" style="ellipse;whiteSpace=wrap;html=1;aspect=fixed;fillColor=#dae8fc;strokeColor=#6c8ebf;rotation=90;" vertex="1" parent="R0zmebqpnlVrIiYbYnW8-228">
          <mxGeometry x="21" y="-22" width="30" height="30" as="geometry" />
        </mxCell>
        <mxCell id="R0zmebqpnlVrIiYbYnW8-230" value="F" style="ellipse;whiteSpace=wrap;html=1;aspect=fixed;fillColor=#d5e8d4;strokeColor=#82b366;rotation=90;" vertex="1" parent="R0zmebqpnlVrIiYbYnW8-228">
          <mxGeometry x="22" y="22" width="30" height="30" as="geometry" />
        </mxCell>
        <mxCell id="R0zmebqpnlVrIiYbYnW8-231" value="" style="endArrow=none;html=1;rounded=0;entryX=0.5;entryY=0;entryDx=0;entryDy=0;" edge="1" parent="R0zmebqpnlVrIiYbYnW8-228" target="R0zmebqpnlVrIiYbYnW8-230">
          <mxGeometry width="50" height="50" relative="1" as="geometry">
            <mxPoint x="51" y="-9" as="sourcePoint" />
            <mxPoint x="102" y="41" as="targetPoint" />
          </mxGeometry>
        </mxCell>
        <mxCell id="R0zmebqpnlVrIiYbYnW8-232" value="" style="endArrow=none;html=1;rounded=0;entryX=0.5;entryY=1;entryDx=0;entryDy=0;" edge="1" parent="R0zmebqpnlVrIiYbYnW8-228" target="R0zmebqpnlVrIiYbYnW8-230">
          <mxGeometry width="50" height="50" relative="1" as="geometry">
            <mxPoint x="21" y="-8" as="sourcePoint" />
            <mxPoint x="72" y="41" as="targetPoint" />
          </mxGeometry>
        </mxCell>
        <mxCell id="R0zmebqpnlVrIiYbYnW8-233" style="edgeStyle=orthogonalEdgeStyle;rounded=0;orthogonalLoop=1;jettySize=auto;html=1;exitX=1;exitY=0.5;exitDx=0;exitDy=0;fontSize=12;" edge="1" parent="1" source="R0zmebqpnlVrIiYbYnW8-230" target="R0zmebqpnlVrIiYbYnW8-227">
          <mxGeometry relative="1" as="geometry" />
        </mxCell>
        <mxCell id="R0zmebqpnlVrIiYbYnW8-146" value="F" style="ellipse;whiteSpace=wrap;html=1;aspect=fixed;fillColor=#dae8fc;strokeColor=#6c8ebf;rotation=-180;" vertex="1" parent="1">
          <mxGeometry x="410" y="-219" width="30" height="30" as="geometry" />
        </mxCell>
        <mxCell id="R0zmebqpnlVrIiYbYnW8-147" value="F" style="ellipse;whiteSpace=wrap;html=1;aspect=fixed;fillColor=#f8cecc;strokeColor=#b85450;rotation=-180;" vertex="1" parent="1">
          <mxGeometry x="367" y="-219" width="30" height="30" as="geometry" />
        </mxCell>
        <mxCell id="R0zmebqpnlVrIiYbYnW8-148" value="" style="endArrow=none;html=1;rounded=0;entryX=0.5;entryY=0;entryDx=0;entryDy=0;" edge="1" parent="1" target="R0zmebqpnlVrIiYbYnW8-147">
          <mxGeometry width="50" height="50" relative="1" as="geometry">
            <mxPoint x="427" y="-189" as="sourcePoint" />
            <mxPoint x="376" y="-139" as="targetPoint" />
          </mxGeometry>
        </mxCell>
        <mxCell id="R0zmebqpnlVrIiYbYnW8-149" value="" style="endArrow=none;html=1;rounded=0;entryX=0.5;entryY=1;entryDx=0;entryDy=0;" edge="1" parent="1" target="R0zmebqpnlVrIiYbYnW8-147">
          <mxGeometry width="50" height="50" relative="1" as="geometry">
            <mxPoint x="427" y="-219" as="sourcePoint" />
            <mxPoint x="376" y="-170" as="targetPoint" />
          </mxGeometry>
        </mxCell>
        <mxCell id="R0zmebqpnlVrIiYbYnW8-234" value="" style="group;rotation=90;" vertex="1" connectable="0" parent="1">
          <mxGeometry x="-10" y="230" width="73" height="30" as="geometry" />
        </mxCell>
        <mxCell id="R0zmebqpnlVrIiYbYnW8-235" value="F" style="ellipse;whiteSpace=wrap;html=1;aspect=fixed;fillColor=#dae8fc;strokeColor=#6c8ebf;rotation=90;" vertex="1" parent="R0zmebqpnlVrIiYbYnW8-234">
          <mxGeometry x="22" y="-20" width="30" height="30" as="geometry" />
        </mxCell>
        <mxCell id="R0zmebqpnlVrIiYbYnW8-236" value="F" style="ellipse;whiteSpace=wrap;html=1;aspect=fixed;fillColor=#f8cecc;strokeColor=#b85450;rotation=90;" vertex="1" parent="R0zmebqpnlVrIiYbYnW8-234">
          <mxGeometry x="22" y="23" width="30" height="30" as="geometry" />
        </mxCell>
        <mxCell id="R0zmebqpnlVrIiYbYnW8-237" value="" style="endArrow=none;html=1;rounded=0;entryX=0.5;entryY=0;entryDx=0;entryDy=0;" edge="1" parent="R0zmebqpnlVrIiYbYnW8-234" target="R0zmebqpnlVrIiYbYnW8-236">
          <mxGeometry width="50" height="50" relative="1" as="geometry">
            <mxPoint x="52" y="-7" as="sourcePoint" />
            <mxPoint x="101" y="43" as="targetPoint" />
          </mxGeometry>
        </mxCell>
        <mxCell id="R0zmebqpnlVrIiYbYnW8-238" value="" style="endArrow=none;html=1;rounded=0;entryX=0.5;entryY=1;entryDx=0;entryDy=0;" edge="1" parent="R0zmebqpnlVrIiYbYnW8-234" target="R0zmebqpnlVrIiYbYnW8-236">
          <mxGeometry width="50" height="50" relative="1" as="geometry">
            <mxPoint x="21" y="-7" as="sourcePoint" />
            <mxPoint x="71" y="43" as="targetPoint" />
          </mxGeometry>
        </mxCell>
        <mxCell id="R0zmebqpnlVrIiYbYnW8-239" value="" style="group;rotation=90;" vertex="1" connectable="0" parent="1">
          <mxGeometry x="40" y="230" width="73" height="30" as="geometry" />
        </mxCell>
        <mxCell id="R0zmebqpnlVrIiYbYnW8-240" value="F" style="ellipse;whiteSpace=wrap;html=1;aspect=fixed;fillColor=#dae8fc;strokeColor=#6c8ebf;rotation=90;" vertex="1" parent="R0zmebqpnlVrIiYbYnW8-239">
          <mxGeometry x="22" y="-20" width="30" height="30" as="geometry" />
        </mxCell>
        <mxCell id="R0zmebqpnlVrIiYbYnW8-241" value="F" style="ellipse;whiteSpace=wrap;html=1;aspect=fixed;fillColor=#f8cecc;strokeColor=#b85450;rotation=90;" vertex="1" parent="R0zmebqpnlVrIiYbYnW8-239">
          <mxGeometry x="22" y="23" width="30" height="30" as="geometry" />
        </mxCell>
        <mxCell id="R0zmebqpnlVrIiYbYnW8-242" value="" style="endArrow=none;html=1;rounded=0;entryX=0.5;entryY=0;entryDx=0;entryDy=0;" edge="1" parent="R0zmebqpnlVrIiYbYnW8-239" target="R0zmebqpnlVrIiYbYnW8-241">
          <mxGeometry width="50" height="50" relative="1" as="geometry">
            <mxPoint x="52" y="-7" as="sourcePoint" />
            <mxPoint x="101" y="43" as="targetPoint" />
          </mxGeometry>
        </mxCell>
        <mxCell id="R0zmebqpnlVrIiYbYnW8-243" value="" style="endArrow=none;html=1;rounded=0;entryX=0.5;entryY=1;entryDx=0;entryDy=0;" edge="1" parent="R0zmebqpnlVrIiYbYnW8-239" target="R0zmebqpnlVrIiYbYnW8-241">
          <mxGeometry width="50" height="50" relative="1" as="geometry">
            <mxPoint x="21" y="-7" as="sourcePoint" />
            <mxPoint x="71" y="43" as="targetPoint" />
          </mxGeometry>
        </mxCell>
        <mxCell id="R0zmebqpnlVrIiYbYnW8-244" value="" style="group;rotation=90;" vertex="1" connectable="0" parent="1">
          <mxGeometry x="90" y="230" width="73" height="30" as="geometry" />
        </mxCell>
        <mxCell id="R0zmebqpnlVrIiYbYnW8-245" value="F" style="ellipse;whiteSpace=wrap;html=1;aspect=fixed;fillColor=#dae8fc;strokeColor=#6c8ebf;rotation=90;" vertex="1" parent="R0zmebqpnlVrIiYbYnW8-244">
          <mxGeometry x="22" y="-20" width="30" height="30" as="geometry" />
        </mxCell>
        <mxCell id="R0zmebqpnlVrIiYbYnW8-246" value="F" style="ellipse;whiteSpace=wrap;html=1;aspect=fixed;fillColor=#f8cecc;strokeColor=#b85450;rotation=90;" vertex="1" parent="R0zmebqpnlVrIiYbYnW8-244">
          <mxGeometry x="22" y="23" width="30" height="30" as="geometry" />
        </mxCell>
        <mxCell id="R0zmebqpnlVrIiYbYnW8-247" value="" style="endArrow=none;html=1;rounded=0;entryX=0.5;entryY=0;entryDx=0;entryDy=0;" edge="1" parent="R0zmebqpnlVrIiYbYnW8-244" target="R0zmebqpnlVrIiYbYnW8-246">
          <mxGeometry width="50" height="50" relative="1" as="geometry">
            <mxPoint x="52" y="-7" as="sourcePoint" />
            <mxPoint x="101" y="43" as="targetPoint" />
          </mxGeometry>
        </mxCell>
        <mxCell id="R0zmebqpnlVrIiYbYnW8-248" value="" style="endArrow=none;html=1;rounded=0;entryX=0.5;entryY=1;entryDx=0;entryDy=0;" edge="1" parent="R0zmebqpnlVrIiYbYnW8-244" target="R0zmebqpnlVrIiYbYnW8-246">
          <mxGeometry width="50" height="50" relative="1" as="geometry">
            <mxPoint x="21" y="-7" as="sourcePoint" />
            <mxPoint x="71" y="43" as="targetPoint" />
          </mxGeometry>
        </mxCell>
        <mxCell id="R0zmebqpnlVrIiYbYnW8-249" value="" style="group;rotation=-180;" vertex="1" connectable="0" parent="1">
          <mxGeometry x="200" y="170" width="73" height="30" as="geometry" />
        </mxCell>
        <mxCell id="R0zmebqpnlVrIiYbYnW8-250" value="F" style="ellipse;whiteSpace=wrap;html=1;aspect=fixed;fillColor=#dae8fc;strokeColor=#6c8ebf;rotation=-180;" vertex="1" parent="R0zmebqpnlVrIiYbYnW8-249">
          <mxGeometry x="42" y="1" width="30" height="30" as="geometry" />
        </mxCell>
        <mxCell id="R0zmebqpnlVrIiYbYnW8-251" value="F" style="ellipse;whiteSpace=wrap;html=1;aspect=fixed;fillColor=#f8cecc;strokeColor=#b85450;rotation=-180;" vertex="1" parent="R0zmebqpnlVrIiYbYnW8-249">
          <mxGeometry x="-1" width="30" height="30" as="geometry" />
        </mxCell>
        <mxCell id="R0zmebqpnlVrIiYbYnW8-252" value="" style="endArrow=none;html=1;rounded=0;entryX=0.5;entryY=0;entryDx=0;entryDy=0;" edge="1" parent="R0zmebqpnlVrIiYbYnW8-249" target="R0zmebqpnlVrIiYbYnW8-251">
          <mxGeometry width="50" height="50" relative="1" as="geometry">
            <mxPoint x="59" y="31" as="sourcePoint" />
            <mxPoint x="8" y="80" as="targetPoint" />
          </mxGeometry>
        </mxCell>
        <mxCell id="R0zmebqpnlVrIiYbYnW8-253" value="" style="endArrow=none;html=1;rounded=0;entryX=0.5;entryY=1;entryDx=0;entryDy=0;" edge="1" parent="R0zmebqpnlVrIiYbYnW8-249" target="R0zmebqpnlVrIiYbYnW8-251">
          <mxGeometry width="50" height="50" relative="1" as="geometry">
            <mxPoint x="59" as="sourcePoint" />
            <mxPoint x="8" y="49" as="targetPoint" />
          </mxGeometry>
        </mxCell>
        <mxCell id="R0zmebqpnlVrIiYbYnW8-260" style="edgeStyle=orthogonalEdgeStyle;rounded=0;orthogonalLoop=1;jettySize=auto;html=1;entryX=0.25;entryY=1;entryDx=0;entryDy=0;strokeColor=default;strokeWidth=1;fontSize=12;" edge="1" parent="1" source="R0zmebqpnlVrIiYbYnW8-235" target="R0zmebqpnlVrIiYbYnW8-12">
          <mxGeometry relative="1" as="geometry" />
        </mxCell>
        <mxCell id="R0zmebqpnlVrIiYbYnW8-261" style="edgeStyle=orthogonalEdgeStyle;rounded=0;orthogonalLoop=1;jettySize=auto;html=1;entryX=0.5;entryY=1;entryDx=0;entryDy=0;strokeColor=default;strokeWidth=1;fontSize=12;" edge="1" parent="1" source="R0zmebqpnlVrIiYbYnW8-240" target="R0zmebqpnlVrIiYbYnW8-12">
          <mxGeometry relative="1" as="geometry" />
        </mxCell>
        <mxCell id="R0zmebqpnlVrIiYbYnW8-262" style="edgeStyle=orthogonalEdgeStyle;rounded=0;orthogonalLoop=1;jettySize=auto;html=1;entryX=0.75;entryY=1;entryDx=0;entryDy=0;strokeColor=default;strokeWidth=1;fontSize=12;" edge="1" parent="1" source="R0zmebqpnlVrIiYbYnW8-245" target="R0zmebqpnlVrIiYbYnW8-12">
          <mxGeometry relative="1" as="geometry" />
        </mxCell>
        <mxCell id="R0zmebqpnlVrIiYbYnW8-263" style="edgeStyle=orthogonalEdgeStyle;rounded=0;orthogonalLoop=1;jettySize=auto;html=1;entryX=0.5;entryY=1;entryDx=0;entryDy=0;strokeColor=default;strokeWidth=1;fontSize=12;" edge="1" parent="1" source="R0zmebqpnlVrIiYbYnW8-214" target="R0zmebqpnlVrIiYbYnW8-236">
          <mxGeometry relative="1" as="geometry" />
        </mxCell>
        <mxCell id="R0zmebqpnlVrIiYbYnW8-264" style="edgeStyle=orthogonalEdgeStyle;rounded=0;orthogonalLoop=1;jettySize=auto;html=1;entryX=1;entryY=0.5;entryDx=0;entryDy=0;strokeColor=default;strokeWidth=1;fontSize=12;" edge="1" parent="1" source="R0zmebqpnlVrIiYbYnW8-222" target="R0zmebqpnlVrIiYbYnW8-241">
          <mxGeometry relative="1" as="geometry" />
        </mxCell>
        <mxCell id="R0zmebqpnlVrIiYbYnW8-265" style="edgeStyle=orthogonalEdgeStyle;rounded=0;orthogonalLoop=1;jettySize=auto;html=1;entryX=0.5;entryY=0;entryDx=0;entryDy=0;strokeColor=default;strokeWidth=1;fontSize=12;" edge="1" parent="1" source="R0zmebqpnlVrIiYbYnW8-229" target="R0zmebqpnlVrIiYbYnW8-246">
          <mxGeometry relative="1" as="geometry">
            <Array as="points">
              <mxPoint x="610" y="43" />
              <mxPoint x="610" y="268" />
            </Array>
          </mxGeometry>
        </mxCell>
      </root>
    </mxGraphModel>
  </diagram>
</mxfile>
